<svg width="22" height="16" viewBox="0 0 22 16" fill="none" xmlns="http://www.w3.org/2000/svg">
<path d="M5.5 16.0001C3.98333 16.0001 2.6875 15.4751 1.6125 14.4251C0.5375 13.3751 0 12.0918 0 10.5751C0 9.2751 0.391667 8.11676 1.175 7.1001C1.95833 6.08343 2.98333 5.43343 4.25 5.1501C4.53333 3.9501 5.24167 2.80843 6.375 1.7251C7.50833 0.641764 8.71667 0.100098 10 0.100098C10.55 0.100098 11.0208 0.295931 11.4125 0.687598C11.8042 1.07926 12 1.5501 12 2.1001V8.1501L13.6 6.6001L15 8.0001L11 12.0001L7 8.0001L8.4 6.6001L10 8.1501V2.1001C8.73333 2.33343 7.75 2.94593 7.05 3.9376C6.35 4.92926 6 5.9501 6 7.0001H5.5C4.53333 7.0001 3.70833 7.34176 3.025 8.0251C2.34167 8.70843 2 9.53343 2 10.5001C2 11.4668 2.34167 12.2918 3.025 12.9751C3.70833 13.6584 4.53333 14.0001 5.5 14.0001H17.5C18.2 14.0001 18.7917 13.7584 19.275 13.2751C19.7583 12.7918 20 12.2001 20 11.5001C20 10.8001 19.7583 10.2084 19.275 9.7251C18.7917 9.24176 18.2 9.0001 17.5 9.0001H16V7.0001C16 6.2001 15.8167 5.45426 15.45 4.7626C15.0833 4.07093 14.6 3.48343 14 3.0001V0.675098C15.2333 1.25843 16.2083 2.12093 16.925 3.2626C17.6417 4.40426 18 5.6501 18 7.0001C19.15 7.13343 20.1042 7.62926 20.8625 8.4876C21.6208 9.34593 22 10.3501 22 11.5001C22 12.7501 21.5625 13.8126 20.6875 14.6876C19.8125 15.5626 18.75 16.0001 17.5 16.0001H5.5Z" fill="black" fill-opacity="0.56"/>
</svg>
